<svg id="Layer_1" data-name="Layer 1" xmlns="http://www.w3.org/2000/svg" viewBox="0 0 94.05 85.03"><defs><style>.cls-1{fill:#ebebeb;stroke:#6a332f;stroke-linejoin:bevel;stroke-width:0.01px;}.cls-1,.cls-6{stroke-linecap:round;}.cls-2,.cls-6{fill:#790f07;}.cls-2,.cls-5,.cls-6{opacity:0.99;isolation:isolate;}.cls-3,.cls-4,.cls-5{fill:#fff;}.cls-3,.cls-4{stroke:#fff;}.cls-3{stroke-width:0.63px;}.cls-4{stroke-width:0.16px;}.cls-6{stroke:#790f07;stroke-linejoin:round;stroke-width:0.42px;}</style></defs><title>Artboard 1</title><g id="g4259"><ellipse id="path5167-5" class="cls-1" cx="47.02" cy="42.51" rx="38.34" ry="38.32"/><path id="path6762-3-8-0" class="cls-2" d="M0,40.73l6-3.2.39-1.08h4.33l.06-.13c0-.11.09-.13.27-.13s.22,0,.29-.15.1-.15.25-.12a.25.25,0,0,0,.3-.12,1.54,1.54,0,0,1,.31-.21.44.44,0,0,0,.2-.14c0-.07.36-.15,2.4-.08.59,0,.79,0,.84,0a5.08,5.08,0,0,0,.05-1.13v-1H21.9a.89.89,0,0,0,.12.14,1.75,1.75,0,0,0,.24.11,1.92,1.92,0,0,0,.29.14,2.84,2.84,0,0,0,.82.16,4,4,0,0,0,.63-.06V30l.29-.2.29.2V33.6l.13,0h.74l.3-.07.3-.12.33-.32h5.44v1.07c0,.9,0,1.08.07,1.12a1.33,1.33,0,0,0,.6,0c.15,0,.32,1,.32-7.35V19.44l.17-.08a.59.59,0,0,0,.26-.26c.07-.17.1-.13.48-.14a1.57,1.57,0,0,0,.75-.16v-.5S34,18,34,17.59a.79.79,0,0,1,.8-.74.82.82,0,0,1,.76.77,1,1,0,0,1-.44.68v.5a1.31,1.31,0,0,0,.74.17c.39,0,.41,0,.49.13a.59.59,0,0,0,.26.26l.17.08v5a40.93,40.93,0,0,0,.09,5,1,1,0,0,0,.41.1l.31,0v1.82c0,1.54-.06,1.65,0,1.7a2.53,2.53,0,0,0,1,0c.08,0,.09-.11.09-.88a5.69,5.69,0,0,0,0-.88s-.14-.07-.27-.08h-.24v-.63h.21a.7.7,0,0,0,.28-.07,4.15,4.15,0,0,0,.06-1.17c0-1.25,0-1.26-.33-1.2a.45.45,0,0,1-.22,0,1.58,1.58,0,0,1,.45-.44s.06-.05.08-.1a.23.23,0,0,1,.14-.15.33.33,0,0,0,.14-.15.2.2,0,0,1,.12-.12.23.23,0,0,0,.15-.14.3.3,0,0,1,.14-.15c.06,0,.1,0,.1-.06a.56.56,0,0,1,.17-.21.7.7,0,0,0,.17-.22c0-.09.09-.05.15.07a.3.3,0,0,0,.14.15.2.2,0,0,1,.12.12.29.29,0,0,0,.14.15c.09,0,.12.09.13.27s0,.23.14.28a.41.41,0,0,1,.16.16.2.2,0,0,0,.13.12.3.3,0,0,1,.14.17c0,.12.08.14.21.14s.29-.12.25-.49c0-.18,0-.29,0-.31a1,1,0,0,1,.59,0,1.27,1.27,0,0,1,0,.36.79.79,0,0,0,0,.37c0,.05.18.07.49.07s.43,0,.47-.11a.34.34,0,0,1,.15-.18c.18-.09.19-.14.18-.62s0-.46.05-.47a.46.46,0,0,0,.16-.11c.08-.09.09-.2.08-1.84,0-1,0-1.76,0-1.79l-.15-.12c-.11-.07-.11-.08-.11-.91s0-.84.1-.9a.25.25,0,0,0,.17-.32c0-.11,0-.16.12-.29s.28-.31.44-.5l.28-.35V17.65l.15-.08c.12-.07.14-.1.14-.29s0-.22.12-.27a.5.5,0,0,0,.15-.15h.11a.7.7,0,0,0,.15.14c.1.05.13.11.14.29s.05.24.14.29l.12.06V19.5l.27.31a2,2,0,0,1,.3.42.28.28,0,0,0,.15.15c.09,0,.12.09.13.28s0,.23.15.29L47,21v1.72l-.13.06-.14.07v2.33c0,1.28,0,2.38,0,2.44l0,.1h2.16c2.4,0,2.21,0,2.21-.34,0-.21,0-.25.54-.24.37,0,.6,0,.6,0v-.82s.22-.1.25-.16.07-.12.1-.12a.49.49,0,0,0,.2,0h.11a.67.67,0,0,0,.32,0l.27,0v1.07a10,10,0,0,0,1.46,0c.09-.05.1-.12.1-1.68V23.84l.14-.07.17-.08V12.51l.37.15v.91a4.86,4.86,0,0,0,3.74,4.29c.31.08,1.14,0,1.3.09v2.34l.15.08c.08.05.15.11.15.13s0,1.52,0,3.32v3.26l.13.07.13.06v6l.15.09.14.08v.63a1.78,1.78,0,0,0,.06.68,1.05,1.05,0,0,0,.48.06c.42,0,.43,0,.48-.13a5.39,5.39,0,0,0,0-1v-.84l.38,0c.27,0,.38,0,.4-.1A2.11,2.11,0,0,1,64,32.2a.21.21,0,0,0,.12-.08.49.49,0,0,1,.25-.15c.11,0,.2-.08.2-.1s.16-.2.34-.2.2,0,.24-.11a.39.39,0,0,1,.19-.17l.15-.05V29.28a9.93,9.93,0,0,1,.15-2l.38-.11v-.73c0-.59,0-.62.14-.67a.48.48,0,0,0,.15-.11,3.26,3.26,0,0,0,0-.61v-.61s.09-.06.24-.06c.45,0,.63-.15.44-.35s-.13-.24,0-.35a.45.45,0,0,0,.12-.25.25.25,0,0,1,.15-.21.32.32,0,0,0,.14-.14c0-.05.09-.11.16-.13s.14-.06.16-.43v-.38h1.47s0,.2,0,.38a1,1,0,0,0,.07.37.59.59,0,0,0,.26.07.34.34,0,0,1,.23.07.41.41,0,0,0,.09.12c.2.16.25.23.25.34a.19.19,0,0,0,.1.17.2.2,0,0,1,.09.16.33.33,0,0,1-.09.2c-.21.19-.07.32.37.36l.33,0,0,.52c0,.63,0,.8.16.84s.15,0,.14.71a6.31,6.31,0,0,0,0,.65.46.46,0,0,0,.3.07l.21.08a19,19,0,0,1,.05,2.11c0,1.2,0,2.21.06,2.24s.13.06.25.06a.31.31,0,0,1,.31.14.41.41,0,0,0,.23.17,1.06,1.06,0,0,1,.27.15.44.44,0,0,0,.2.12s.1,0,.13.12a.26.26,0,0,0,.13.14.53.53,0,0,1,.16.17c.08.14.08.14.57.16h.5v1.2a6.06,6.06,0,0,0,.07,1.26,27.57,27.57,0,0,0,3.53.06c3.43,0,3.47,0,3.5.1a.28.28,0,0,0,.15.13.29.29,0,0,1,.18.13c.07.11.4.24.48.19s.27,0,.3.15.06.12.28.13.25,0,.27.14l0,.1H87.7l.39,1.09,6,3.2V44.3l-6,3.2-.39,1.08H83.37l0,.11c0,.11,0,.13-.27.14s-.26,0-.28.13a.24.24,0,0,1-.3.15c-.08,0-.41.08-.48.19a.29.29,0,0,1-.18.13.28.28,0,0,0-.15.13c0,.09-.07.09-3.5.09a25.51,25.51,0,0,0-3.53.07A6,6,0,0,0,74.58,51v1.2h-.5c-.49,0-.49,0-.57.16a.4.4,0,0,1-.16.16.33.33,0,0,0-.13.15c0,.06-.09.12-.13.12a.51.51,0,0,0-.2.11.67.67,0,0,1-.27.15.49.49,0,0,0-.23.18c-.08.11-.13.13-.31.13a.4.4,0,0,0-.25.06s0,1.05-.06,2.25a19,19,0,0,1-.05,2.11l-.21.08a.46.46,0,0,0-.3.07,6.31,6.31,0,0,0,0,.65c0,.73,0,.68-.14.71s-.18.21-.16.84l0,.51-.33,0c-.44,0-.58.17-.37.36a.33.33,0,0,1,.09.2.2.2,0,0,1-.09.16.19.19,0,0,0-.1.17c0,.11-.05.18-.25.34a.41.41,0,0,0-.09.12.41.41,0,0,1-.23.07.59.59,0,0,0-.26.07,1,1,0,0,0-.07.37c0,.18,0,.37,0,.37H67.74v-.37c0-.37,0-.38-.16-.43s-.15-.08-.16-.13a.32.32,0,0,0-.14-.14.26.26,0,0,1-.15-.21.52.52,0,0,0-.12-.26c-.13-.11-.12-.2,0-.34s0-.35-.44-.35c-.15,0-.24,0-.24-.06V60a3.26,3.26,0,0,0,0-.61.48.48,0,0,0-.15-.11c-.1-.05-.14-.08-.14-.68v-.72l-.38-.11a9.93,9.93,0,0,1-.15-2V53.69l-.15,0a.39.39,0,0,1-.19-.17c0-.09-.09-.12-.24-.12s-.34-.09-.34-.19-.09-.07-.2-.1a.49.49,0,0,1-.25-.15.21.21,0,0,0-.12-.08,2,2,0,0,1-.55-.54s-.13-.07-.4-.09l-.38,0v-.84a5.33,5.33,0,0,0,0-1c-.05-.13-.06-.13-.48-.13a1.05,1.05,0,0,0-.48.06,1.78,1.78,0,0,0-.06.68v.63l-.14.08-.15.08v6.06l-.13.06-.13.07v3.26c0,1.8,0,3.29,0,3.32a.53.53,0,0,1-.15.13l-.15.08v2.34c-.16.1-1,0-1.3.09a4.86,4.86,0,0,0-3.74,4.29v1.09l-.37.15V61.33l-.17-.07L55,61.18V59.55c0-1.56,0-1.63-.1-1.68a10,10,0,0,0-1.46,0V59l-.27,0a.67.67,0,0,0-.32.05h-.11a.49.49,0,0,0-.2,0s-.07,0-.1-.12-.25-.17-.25-.17v-.81s-.23,0-.6,0c-.57,0-.54,0-.54-.24,0-.37.19-.34-2.21-.34H46.71l0,.1c0,.06,0,1.16,0,2.44v2.33l.14.06.13.07V64l-.13.06c-.12,0-.14.1-.15.29s0,.24-.13.28a.28.28,0,0,0-.15.15,2,2,0,0,1-.3.42l-.27.31v1.86l-.12.06c-.09,0-.12.11-.14.29s0,.24-.14.29a.52.52,0,0,0-.15.13h-.11A.51.51,0,0,0,45,68c-.1,0-.12-.09-.12-.27s0-.23-.14-.29l-.15-.08V65.52l-.28-.35c-.16-.2-.35-.42-.44-.51s-.15-.17-.12-.28a.26.26,0,0,0-.17-.33c-.1,0-.1-.07-.1-.89s0-.84.11-.91l.15-.12s0-.84,0-1.8c0-1.64,0-1.74-.08-1.83a.46.46,0,0,0-.16-.11c-.05,0-.06-.13-.05-.47,0-.49,0-.53-.18-.62a.34.34,0,0,1-.15-.18c0-.11-.06-.11-.47-.11s-.45,0-.49.06a.84.84,0,0,0,0,.38,1.27,1.27,0,0,1,0,.36,1,1,0,0,1-.59,0s0-.13,0-.31c0-.37,0-.49-.25-.49s-.17,0-.21.14a.3.3,0,0,1-.14.17.2.2,0,0,0-.13.12.34.34,0,0,1-.16.15c-.11.06-.13.1-.14.29s0,.23-.13.27a.29.29,0,0,0-.14.15.2.2,0,0,1-.12.12.3.3,0,0,0-.14.15c-.06.12-.15.16-.15.07a.7.7,0,0,0-.17-.22.65.65,0,0,1-.17-.21s0-.05-.1-.06a.3.3,0,0,1-.14-.15.23.23,0,0,0-.15-.14.2.2,0,0,1-.12-.12.33.33,0,0,0-.14-.15.26.26,0,0,1-.14-.15s0-.1-.08-.1-.48-.41-.45-.45h.22c.33.06.33,0,.33-1.2a4.15,4.15,0,0,0-.06-1.17.7.7,0,0,0-.28-.07h-.21v-.63h.24c.13,0,.25,0,.27-.08a5.79,5.79,0,0,0,0-.88c0-.77,0-.83-.09-.88a2.53,2.53,0,0,0-1,0c-.1,0,0,.16,0,1.7v1.82l-.31,0a1,1,0,0,0-.41.1,40.78,40.78,0,0,0-.09,5v5l-.17.07a.65.65,0,0,0-.26.26c-.08.18-.1.13-.49.14a1.31,1.31,0,0,0-.74.17v.5a1,1,0,0,1,.44.68.81.81,0,0,1-.76.76.79.79,0,0,1-.8-.73c0-.42.48-.71.48-.71v-.5a1.57,1.57,0,0,0-.75-.16c-.38,0-.41,0-.48-.15a.65.65,0,0,0-.26-.26l-.17-.07V57c0-8.4-.17-7.3-.32-7.35a1.33,1.33,0,0,0-.6,0c-.06,0-.07.22-.07,1.12v1.06H26.38l-.33-.31-.3-.12-.3-.07h-.74l-.13,0V55l-.29.19L24,55V51.4a4,4,0,0,0-.63-.06,2.84,2.84,0,0,0-.82.16,1.92,1.92,0,0,0-.29.14,1,1,0,0,0-.24.11,1,1,0,0,0-.12.13H15.65v-1a5.08,5.08,0,0,0-.05-1.13s-.25-.08-.84-.06c-2,.07-2.37,0-2.4-.07s-.1-.1-.2-.14a1.26,1.26,0,0,1-.31-.22.26.26,0,0,0-.3-.11c-.15,0-.18,0-.25-.12s-.1-.15-.29-.15-.22,0-.27-.13l-.06-.13H6.35L6,47.5,0,44.3V40.73Z"/><g id="g5174-27-8-4"><path id="path4308-2-1" class="cls-2" d="M93.43,41.21l-6.5-3.3-.1-.41-79.62.19-.09.42L.61,41.21v2.61l6.51,3.1.09.41,79.62.2.1-.42,6.5-3.29V41.21Z"/></g><g id="flowRoot3011-1-5-1-6"><path id="path4356-4" class="cls-3" d="M14.46,43.82a1.84,1.84,0,0,1-.85,1.53,3.42,3.42,0,0,1-2,.6H7.05v-.28h.06a.42.42,0,0,0,.18,0l.16-.1a.2.2,0,0,0,.06-.13,1.38,1.38,0,0,0,0-.22.91.91,0,0,0,0-.17v-5.3a.5.5,0,0,0-.47-.53H7v-.28h4.47a2.86,2.86,0,0,1,1.6.45,1.33,1.33,0,0,1,.69,1.14,1.3,1.3,0,0,1-.34.93,2.1,2.1,0,0,1-1,.54,2.77,2.77,0,0,1,1.41.63A1.61,1.61,0,0,1,14.46,43.82Zm-1.77-3.24a.82.82,0,0,0-.39-.75,3.66,3.66,0,0,0-1.75-.28H8.64v2.14H10.7A3.78,3.78,0,0,0,12,41.52,1,1,0,0,0,12.69,40.58Zm.6,3.28a1.29,1.29,0,0,0-.83-1.24A3.38,3.38,0,0,0,11,42.34H8.64v2.93h2.79A2.47,2.47,0,0,0,12.56,45,1.21,1.21,0,0,0,13.29,43.86Z"/><path id="path4358-4" class="cls-3" d="M17.16,46H15.55v-.22h0a.38.38,0,0,0,.27-.1.25.25,0,0,0,.05-.16V41a.34.34,0,0,0-.05-.2.35.35,0,0,0-.27-.11h0v-.22h1.61v.22h0a.34.34,0,0,0-.27.11.29.29,0,0,0-.06.21v4.47a.34.34,0,0,0,.06.2.31.31,0,0,0,.27.1h0Z"/><path id="path4360-6" class="cls-3" d="M23.24,46H18v-.22H18a.43.43,0,0,0,.26-.1.24.24,0,0,0,0-.12,1.23,1.23,0,0,0,0-.19V41a.52.52,0,0,0,0-.14.12.12,0,0,0,0-.08.36.36,0,0,0-.26-.11H18v-.22h1.61v.22h0a.36.36,0,0,0-.26.11.23.23,0,0,0-.05.11s0,.11,0,.19v4.38H22a3,3,0,0,0,.47,0,.71.71,0,0,0,.33-.14A.43.43,0,0,0,23,45h.26Z"/><path id="path4362-7" class="cls-3" d="M29.21,46H23.92v-.22h0a.43.43,0,0,0,.26-.1.24.24,0,0,0,0-.12,1.23,1.23,0,0,0,0-.19V41a.52.52,0,0,0,0-.14.12.12,0,0,0,0-.08.36.36,0,0,0-.26-.11h0v-.22h1.62v.22h-.05a.36.36,0,0,0-.26.11.23.23,0,0,0-.05.11s0,.11,0,.19v4.38H28a3.23,3.23,0,0,0,.48,0,.81.81,0,0,0,.33-.14A.45.45,0,0,0,29,45h.26Z"/><path id="path4364-9" class="cls-3" d="M36.79,46H35.14v-.22h0a.48.48,0,0,0,.24-.06s0-.13-.08-.32-.11-.18-.16-.27l-.78-1.34H31.81L31,45.42a.21.21,0,0,0,0,.12.14.14,0,0,0,0,.09.38.38,0,0,0,.27.1h.05V46H29.87v-.22h.05a.35.35,0,0,0,.19-.06l.05-.05.08-.12,2.59-5.08h.62l2.7,4.66.16.29a1.21,1.21,0,0,0,.2.26.32.32,0,0,0,.23.1h0V46Zm-2.68-2.73L33,41.34l-.94,1.88Z"/><path id="path4366-8" class="cls-3" d="M43.28,46H42.06l-2.41-2.47h-.93v1.59c0,.22,0,.37,0,.43a.23.23,0,0,0,.05.12.57.57,0,0,0,.34.1h0V46H37.48v-.22h0a.39.39,0,0,0,.26-.1s0-.05,0-.1a.9.9,0,0,0,0-.18s0-.09,0-.13v-4.3a.24.24,0,0,0-.06-.17.36.36,0,0,0-.26-.11h0v-.22h3.08a3.23,3.23,0,0,1,1.57.34,1.23,1.23,0,0,1,.72,1.11,1.26,1.26,0,0,1-.57,1.07,2.84,2.84,0,0,1-1.36.47l-.24,0,2,2,.13.12.11.07a.86.86,0,0,0,.36.08ZM42,41.9a1,1,0,0,0-.54-.79,2.59,2.59,0,0,0-1.09-.18H38.72v2l1.88,0a1.94,1.94,0,0,0,.88-.22A.82.82,0,0,0,42,42C42,42,42,41.93,42,41.9Z"/><path id="path4368-5" class="cls-3" d="M50.32,43.54a2.05,2.05,0,0,1-1,1.84A4.3,4.3,0,0,1,47,46H44v-.22h0a.39.39,0,0,0,.26-.1.19.19,0,0,0,.05-.1.9.9,0,0,0,0-.18s0-.09,0-.13v-4.3a.24.24,0,0,0-.06-.17.36.36,0,0,0-.26-.11h0v-.22h2a5.39,5.39,0,0,1,3,.8,2.65,2.65,0,0,1,1.31,2.32Zm-1,0a2.23,2.23,0,0,0-1-1.9,4.19,4.19,0,0,0-2.47-.68h-.62v4.49h1.19a7.76,7.76,0,0,0,1.37-.1,2,2,0,0,0,1.09-.53A1.78,1.78,0,0,0,49.35,43.51Z"/><path id="path4370-6" class="cls-4" d="M58.14,40.17H57.8a1,1,0,0,0,0-.22.33.33,0,0,0-.14-.19.93.93,0,0,0-.42-.15,5,5,0,0,0-.91-.06H52.75v2.14h3.31a.51.51,0,0,0,.35-.37h.35v1.33h-.34a.43.43,0,0,0-.15-.26.52.52,0,0,0-.22-.07h-3.3v3a.29.29,0,0,0,.17.27.84.84,0,0,0,.3.08V46H51.16v-.28h.06a.45.45,0,0,0,.18,0l.16-.1a.4.4,0,0,0,.06-.13,1.38,1.38,0,0,0,0-.22c0-.06,0-.12,0-.17V39.55a.34.34,0,0,0-.07-.22.54.54,0,0,0-.35-.14h-.06v-.28h7Z"/><path id="path4372-2" class="cls-3" d="M64.63,46H63v-.22h0a.48.48,0,0,0,.24-.06c.05,0,0-.13-.08-.32s-.11-.18-.16-.27l-.78-1.34H59.65l-.83,1.68a.21.21,0,0,0,0,.12.14.14,0,0,0,0,.09.38.38,0,0,0,.27.1h0V46H57.71v-.22h0a.35.35,0,0,0,.19-.06l0-.05.08-.12,2.59-5.08h.62L64,45.08l.16.29a1.21,1.21,0,0,0,.2.26.32.32,0,0,0,.23.1h0ZM62,43.22l-1.1-1.88-.94,1.88Z"/><path id="path4374-5" class="cls-3" d="M71.15,44.28a1.42,1.42,0,0,1-.67,1.2A2.68,2.68,0,0,1,68.9,46H65.33v-.22h0l.14,0,.13-.08a.19.19,0,0,0,0-.1.9.9,0,0,0,0-.18.57.57,0,0,0,0-.13V41.05a.38.38,0,0,0-.11-.3.4.4,0,0,0-.26-.11h0v-.22H68.8a2.19,2.19,0,0,1,1.25.36,1,1,0,0,1,.28,1.62,1.73,1.73,0,0,1-.77.43,2.09,2.09,0,0,1,1.11.49,1.25,1.25,0,0,1,.48,1Zm-1.39-2.55a.65.65,0,0,0-.31-.59,2.82,2.82,0,0,0-1.37-.22h-1.5V42.6H68.2a2.93,2.93,0,0,0,1-.13.76.76,0,0,0,.57-.74Zm.48,2.58a1,1,0,0,0-.66-1,2.74,2.74,0,0,0-1.13-.22H66.58v2.31h2.19a2,2,0,0,0,.88-.2A1,1,0,0,0,70.24,44.31Z"/><path id="path4376-5" class="cls-3" d="M77.75,46H76.54l-2.42-2.47H73.2v1.59a4.15,4.15,0,0,0,0,.43.24.24,0,0,0,0,.12.59.59,0,0,0,.34.1h0V46H72v-.22h0a.41.41,0,0,0,.26-.1.19.19,0,0,0,0-.1,1,1,0,0,0,0-.18.57.57,0,0,0,0-.13v-4.3a.23.23,0,0,0,0-.17.38.38,0,0,0-.26-.11h0v-.22H75a3.28,3.28,0,0,1,1.57.34,1.24,1.24,0,0,1,.14,2.18,2.84,2.84,0,0,1-1.35.47l-.24,0,2,2,.12.12.12.07a.78.78,0,0,0,.35.08V46ZM76.47,41.9a1,1,0,0,0-.53-.79,2.61,2.61,0,0,0-1.1-.18H73.2v2l1.87,0a1.94,1.94,0,0,0,.88-.22.8.8,0,0,0,.53-.72A.38.38,0,0,0,76.47,41.9Z"/><path id="path4378-2" class="cls-3" d="M80.24,46H78.62v-.22h0a.35.35,0,0,0,.26-.1.21.21,0,0,0,0-.16V41a.28.28,0,0,0,0-.2.33.33,0,0,0-.26-.11h0v-.22h1.62v.22h0a.37.37,0,0,0-.27.11.36.36,0,0,0,0,.21v4.47a.42.42,0,0,0,0,.2.33.33,0,0,0,.27.1h0Z"/><path id="path4380-8" class="cls-3" d="M87.05,46H85.37v-.22h0a.25.25,0,0,0,.23-.1c0-.05,0-.16-.14-.31l-.19-.24-1.77-2.49-1.33.89v1.6a3.16,3.16,0,0,0,0,.35.31.31,0,0,0,.09.19l.14.09.13,0h.05V46H81v-.22h0l.14,0,.13-.08a.19.19,0,0,0,0-.1.9.9,0,0,0,0-.18s0-.09,0-.13v-4.3a.29.29,0,0,0,0-.17.4.4,0,0,0-.27-.11h0v-.22h1.62v.22h0a.37.37,0,0,0-.27.11.23.23,0,0,0,0,.11s0,.11,0,.19V42.8l2.57-1.75.18-.12c.12-.09.17-.15.14-.19a.22.22,0,0,0-.13-.09h-.19v-.22h1.93v.22h-.24l-.16.06a.56.56,0,0,0-.18.1l-.37.24-1.54,1.06,2.14,3,.2.29a1.93,1.93,0,0,0,.18.22l.11.09a.24.24,0,0,0,.14,0h0Z"/></g><circle id="path4899-9-6-7" class="cls-5" cx="4.29" cy="42.51" r="0.96"/><circle id="path4899-4-1-3-8" class="cls-5" cx="89.75" cy="42.51" r="0.96"/><path id="path4248-5-1-0" class="cls-6" d="M44.65.21l-2.37.2-.71,3.51-2.16.36-2.13.49-2-3L33,2.52l.1,3.58-2,.83-2,1-2.6-2.45L24.47,6.64l.89,3.46-1.79,1.27-1.71,1.36-3.08-1.81-1.73,1.63,1.63,3.18-1.45,1.63-1.37,1.71L12.45,18l-1.32,2,2.3,2.74-1.06,1.91-.95,2L7.86,26.3,7,28.52l2.86,2.16-.61,2.1-.49,2.13-3.54.51-.14,1a1.9,1.9,0,0,1,.37-.8c1.29-.7,2.81-.32,4.2-.39.88.17,1.53-.63,2.29-.92l1.48,0a34.58,34.58,0,0,1,67.18-.08,4.52,4.52,0,0,1,3,1,14.36,14.36,0,0,0,1.73.06l-.06-.34-.48-2.13,3-2L87,28.52l-3.58.09-.84-2-1-2L84.12,22,82.92,20l-3.47.89-1.27-1.79-1.36-1.71,1.81-3.08L77,12.55l-3.18,1.64-1.64-1.46-1.71-1.36L71.55,8l-2-1.32-2.74,2.3L64.92,7.88l-2-1,.3-3.56L61,2.52,58.87,5.37l-2.11-.6-2.13-.49L54.12.74,51.77.41,50.3,3.67l-2.18-.12H45.93L44.65.21ZM89,48.59a1.8,1.8,0,0,1-.37.79c-1.29.69-2.81.32-4.2.39-1-.18-1.61.75-2.48,1H80.62a34.58,34.58,0,0,1-67.18.07,4.36,4.36,0,0,1-2.73-.8,5,5,0,0,0-2-.26l.06.37.49,2.13-3,2L7,56.51l3.58-.09.83,2,.95,2L9.92,63l1.21,2.05,3.47-.89L15.86,66l1.37,1.7-1.82,3.09,1.64,1.73,3.18-1.64,1.63,1.46,1.71,1.36-1.08,3.41,2,1.32,2.74-2.3,1.91,1.06,2,.95-.29,3.56,2.22.85,2.16-2.85,2.1.6,2.13.49.51,3.54,2.36.33,1.47-3.26,2.18.12h2.19l1.28,3.34,2.37-.2.7-3.51,2.16-.36,2.13-.49,2,3L61,82.51l-.09-3.58,2-.83,2-.95,2.61,2.45,2-1.21-.89-3.46,1.78-1.27,1.71-1.36,3.09,1.81L77,72.48l-1.64-3.19,1.46-1.63L78.18,66,81.6,67l1.32-2-2.31-2.74,1.06-1.91,1-2,3.57.29L87,56.51l-2.86-2.16.61-2.1.48-2.13,3.55-.51.14-1Z"/></g></svg>