<svg id="Layer_1" data-name="Layer 1" xmlns="http://www.w3.org/2000/svg" viewBox="0 0 217.64 149.38"><defs><style>.cls-1{fill:#790f07;}.cls-1,.cls-2,.cls-5{opacity:0.99;isolation:isolate;}.cls-2{fill:none;stroke-linejoin:bevel;stroke-width:1.87px;}.cls-2,.cls-3,.cls-4{stroke:#fff;}.cls-3,.cls-4,.cls-5{fill:#fff;}.cls-3{stroke-width:0.87px;}.cls-4{stroke-width:0.21px;}</style></defs><title>Artboard - no cranz</title><g id="g4377"><path id="path6762-3-8-7-7" class="cls-1" d="M0,70.56l13.8-7.41.89-2.51h10l.14-.28c.12-.27.21-.31.64-.31s.51,0,.67-.35.21-.34.57-.28.44,0,.7-.27a2.48,2.48,0,0,1,.72-.49,1,1,0,0,0,.46-.34c.06-.14.83-.32,5.54-.16,1.38.05,1.84,0,1.94-.13a10.42,10.42,0,0,0,.14-2.62V53H50.68a1.82,1.82,0,0,0,.28.31,2.61,2.61,0,0,0,.56.26c.22.1.43.24.66.32a7,7,0,0,0,1.91.37,12.38,12.38,0,0,0,1.65-.13V45.75l.47-.44.46.44v8.3l.32.11H58.9l.7-.15.69-.28L61,53h12.6v2.47c0,2.07,0,2.49.18,2.58a2.89,2.89,0,0,0,1.38.06c.35-.09.74,2.44.74-17V21.27l.4-.18a1.42,1.42,0,0,0,.59-.6c.18-.4.24-.32,1.12-.33a3.58,3.58,0,0,0,1.73-.38V18.62A2.3,2.3,0,0,1,78.69,17a1.83,1.83,0,0,1,1.84-1.69A1.87,1.87,0,0,1,82.29,17a2.28,2.28,0,0,1-1,1.58v1.16a3,3,0,0,0,1.71.39c.91,0,1-.08,1.15.32a1.42,1.42,0,0,0,.59.6l.4.18V32.76c0,9.08,0,11.52.21,11.66a2.26,2.26,0,0,0,.94.23l.73.05,0,4.22c0,3.55-.14,3.81.07,3.93a5.88,5.88,0,0,0,2.21,0c.2-.11.21-.25.21-2a13.1,13.1,0,0,0-.09-2,1.16,1.16,0,0,0-.63-.17l-.56,0V47.09l.5,0a1.52,1.52,0,0,0,.64-.15,8.77,8.77,0,0,0,.14-2.7c0-2.92,0-2.92-.76-2.8a1,1,0,0,1-.5,0c-.08-.08.89-1,1-1s.13-.11.17-.23a.7.7,0,0,1,.33-.35.64.64,0,0,0,.32-.33.43.43,0,0,1,.29-.28.6.6,0,0,0,.34-.34.59.59,0,0,1,.33-.33c.12,0,.22-.1.22-.15a1.85,1.85,0,0,1,.39-.49,1.52,1.52,0,0,0,.39-.5c0-.22.23-.12.35.16a.73.73,0,0,0,.33.34.46.46,0,0,1,.27.29.72.72,0,0,0,.33.34c.22.1.27.22.3.63s.08.54.33.66a.71.71,0,0,1,.37.35.52.52,0,0,0,.29.29.67.67,0,0,1,.34.39c.1.27.18.33.49.33.5,0,.65-.29.57-1.13,0-.43,0-.68.07-.73a2.55,2.55,0,0,1,1.37,0,2.74,2.74,0,0,1,0,.84,1.87,1.87,0,0,0,.11.87c.1.11.4.16,1.12.16.95,0,1,0,1.1-.27a.83.83,0,0,1,.35-.41c.4-.21.43-.31.41-1.43,0-.79,0-1.06.12-1.1a1.31,1.31,0,0,0,.36-.26c.19-.19.2-.44.2-4.24,0-2.22,0-4.08-.08-4.14a1.84,1.84,0,0,0-.34-.29c-.26-.16-.27-.19-.27-2.11s0-1.94.25-2.07a.59.59,0,0,0,.38-.75c-.06-.25,0-.38.29-.66s.65-.72,1-1.17l.66-.82V17.11l.33-.17c.3-.16.33-.23.33-.67s0-.52.27-.63a1.1,1.1,0,0,0,.35-.34V13.12s-.22-.19-.2-.31a.34.34,0,0,1,.66,0c0,.12-.2.31-.2.31V15.3a1.65,1.65,0,0,0,.35.32c.22.11.29.25.33.67s.11.56.33.67l.27.13v4.32l.63.71a4.66,4.66,0,0,1,.7,1,.68.68,0,0,0,.35.36c.21.08.26.19.29.63s.08.55.34.68l.31.15v4l-.31.14-.3.15,0,5.39c0,3,0,5.51,0,5.65l.06.25h5c5.56,0,5.13.07,5.13-.79,0-.5-.07-.59,1.24-.56.86,0,1.39,0,1.39,0V37.23s.51-.24.58-.39.17-.26.22-.26c.29,0,.36,0,.48-.1V35.42a.12.12,0,0,1,.12-.11.11.11,0,0,1,.12.11v1.06c.17.11.19.12.74.12l.63,0v2.49a22.21,22.21,0,0,0,3.38,0c.21-.11.22-.27.22-3.89V31.46l.33-.17.39-.17V0l.87.34V7.67c0,5.12,5.52,9.8,8.66,9.94.71.18,2.63,0,3,.2,0,.07,0,1.32,0,2.77v2.65l.34.19c.18.11.34.24.34.3s0,3.52,0,7.68l0,7.56.31.15.3.15v14l.34.19.33.19v1.46a4.17,4.17,0,0,0,.14,1.58,2.63,2.63,0,0,0,1.11.13c1,0,1,0,1.1-.3a12,12,0,0,0,.08-2.25l0-2,.89-.06c.63,0,.89-.1.93-.21a4.47,4.47,0,0,1,1.27-1.23.41.41,0,0,0,.27-.2,1.13,1.13,0,0,1,.58-.34c.25-.08.46-.18.46-.24,0-.23.38-.45.79-.45s.46-.05.56-.27a.87.87,0,0,1,.44-.38l.35-.11V44.05a22.67,22.67,0,0,1,.35-4.66l.88-.25V37.46c0-1.37.09-1.44.33-1.57a1.11,1.11,0,0,0,.34-.25,7.16,7.16,0,0,0,.07-1.4c0-.71,0-1.34,0-1.42s.2-.14.56-.14c1,0,1.46-.35,1-.82-.3-.31-.3-.53,0-.79a1.22,1.22,0,0,0,.29-.58.64.64,0,0,1,.34-.5.66.66,0,0,0,.32-.32.67.67,0,0,1,.39-.31c.32-.11.32-.13.36-1l0-.88h3.4s0,.45,0,.86a2,2,0,0,0,.15.88,1.19,1.19,0,0,0,.6.15c.26,0,.5.09.52.16a.74.74,0,0,0,.21.27c.47.38.6.55.6.8a.45.45,0,0,0,.22.39.49.49,0,0,1,.22.38.74.74,0,0,1-.22.46c-.48.43-.17.73.87.82l.74.07,0,1.18c0,1.48,0,1.85.38,1.94s.35,0,.33,1.66a9.6,9.6,0,0,0,0,1.5c.07.11.34.16.69.17l.47.19a41.25,41.25,0,0,1,.12,4.87c.07,2.79.09,5.13.14,5.2a.89.89,0,0,0,.58.14c.41,0,.52,0,.72.32a1.08,1.08,0,0,0,.52.4,1.91,1.91,0,0,1,.63.35,1.08,1.08,0,0,0,.48.27c.09,0,.22.12.29.27a.6.6,0,0,0,.3.34.88.88,0,0,1,.36.38c.19.33.2.33,1.34.37l1.15,0,0,2.77a15.55,15.55,0,0,0,.15,2.92c.1.12,1.61.15,8.17.15,7.94,0,8,0,8.11.22a.53.53,0,0,0,.34.29.86.86,0,0,1,.42.31c.17.25.92.56,1.1.44s.62.08.69.35.14.27.65.3.58.07.64.31l.06.26h10l.89,2.51,13.79,7.41v8.26l-13.79,7.41L203,88.74h-10l-.06.26c-.06.24-.13.28-.64.31s-.59.07-.65.31-.48.47-.69.34-.93.19-1.1.44a.86.86,0,0,1-.42.31A.53.53,0,0,0,189,91c-.07.22-.17.22-8.11.22-6.56,0-8.07,0-8.17.15a15.55,15.55,0,0,0-.15,2.92l0,2.77-1.15,0c-1.14,0-1.15,0-1.34.37a.88.88,0,0,1-.36.38.68.68,0,0,0-.3.34c-.07.15-.2.27-.29.27a1.19,1.19,0,0,0-.48.27,1.91,1.91,0,0,1-.63.35,1.08,1.08,0,0,0-.52.4c-.2.27-.31.32-.72.32a.89.89,0,0,0-.58.14c0,.07-.07,2.42-.14,5.2a41.25,41.25,0,0,1-.12,4.87l-.47.19a1,1,0,0,0-.69.17,9.63,9.63,0,0,0,0,1.5c0,1.69,0,1.58-.33,1.66s-.43.46-.38,1.94l0,1.18-.74.07c-1,.09-1.35.39-.87.82a.76.76,0,0,1,.22.46.47.47,0,0,1-.22.38.45.45,0,0,0-.22.39c0,.25-.13.42-.6.8a.74.74,0,0,0-.21.27c0,.07-.26.15-.52.16a1.19,1.19,0,0,0-.6.15,2,2,0,0,0-.15.88c0,.41,0,.86,0,.86h-3.4l0-.88c0-.85,0-.87-.36-1a.67.67,0,0,1-.39-.31.61.61,0,0,0-.32-.31.66.66,0,0,1-.34-.51,1.22,1.22,0,0,0-.29-.58c-.28-.25-.28-.48,0-.79.44-.47,0-.82-1-.82-.36,0-.56,0-.56-.14s0-.71,0-1.42a7.16,7.16,0,0,0-.07-1.4,1.11,1.11,0,0,0-.34-.25c-.24-.13-.33-.2-.33-1.57v-1.67l-.88-.26a22.67,22.67,0,0,1-.35-4.66v-4.77l-.35-.11a.94.94,0,0,1-.44-.39c-.1-.22-.2-.27-.56-.27s-.79-.22-.79-.45c0,0-.21-.16-.46-.24a1.2,1.2,0,0,1-.58-.33.43.43,0,0,0-.27-.21,4.43,4.43,0,0,1-1.27-1.22c0-.12-.3-.18-.93-.22l-.89-.06,0-1.94a12.08,12.08,0,0,0-.08-2.26c-.12-.3-.13-.3-1.1-.3a2.63,2.63,0,0,0-1.11.13,4.24,4.24,0,0,0-.14,1.59v1.45l-.33.19-.34.19v14l-.3.15-.31.15,0,7.56c0,4.16,0,7.62,0,7.68s-.16.19-.34.3l-.34.19v2.65c0,1.45,0,2.7,0,2.78-.36.21-2.28,0-3,.2-3.14.13-8.66,4.81-8.66,9.94V149l-.87.34V118.27l-.39-.18-.33-.17v-3.78c0-3.62,0-3.78-.22-3.89a22.21,22.21,0,0,0-3.38,0v2.49l-.63,0c-.55,0-.57,0-.74.11V114a.11.11,0,0,1-.12.1.11.11,0,0,1-.12-.1V112.9c-.12-.11-.19-.09-.48-.09a.49.49,0,0,1-.22-.27c-.07-.15-.58-.39-.58-.39v-1.89s-.53,0-1.39,0c-1.31,0-1.24-.06-1.24-.56,0-.85.43-.79-5.13-.79h-5l-.06.25c0,.14-.05,2.68,0,5.65l0,5.39.3.15.31.15v4l-.31.14c-.26.13-.31.23-.34.68s-.08.55-.29.63a.68.68,0,0,0-.35.36,4.66,4.66,0,0,1-.7,1L106,128v4.32l-.27.14c-.22.1-.28.24-.33.66s-.11.56-.33.67a1.65,1.65,0,0,0-.35.32v2.18s.22.19.2.31a.34.34,0,0,1-.66,0c0-.12.2-.31.2-.31v-2.18a1.22,1.22,0,0,0-.35-.34c-.22-.1-.27-.2-.27-.62s0-.52-.33-.68l-.33-.17V128l-.66-.82c-.36-.45-.82-1-1-1.17s-.35-.41-.29-.66a.59.59,0,0,0-.38-.75c-.24-.12-.25-.17-.25-2.07s0-1.95.27-2.11a2.4,2.4,0,0,0,.34-.28c0-.07.08-1.93.08-4.15,0-3.8,0-4-.2-4.24a1.31,1.31,0,0,0-.36-.26c-.11,0-.14-.31-.12-1.1,0-1.12,0-1.22-.41-1.43a.8.8,0,0,1-.35-.4c-.1-.26-.15-.28-1.1-.28-.72,0-1,.05-1.12.16a1.9,1.9,0,0,0-.11.88,2.69,2.69,0,0,1,0,.83,2.64,2.64,0,0,1-1.37,0c-.08-.06-.1-.31-.07-.73.08-.85-.07-1.14-.57-1.14-.31,0-.39.06-.49.33a.64.64,0,0,1-.34.39.52.52,0,0,0-.29.29.76.76,0,0,1-.37.36c-.25.12-.3.22-.33.65s-.08.54-.3.63a.7.7,0,0,0-.33.35.47.47,0,0,1-.27.28.73.73,0,0,0-.33.34c-.12.28-.35.38-.35.16a1.52,1.52,0,0,0-.39-.5,1.87,1.87,0,0,1-.39-.48c0-.06-.1-.13-.22-.16a.59.59,0,0,1-.33-.33.55.55,0,0,0-.34-.33.47.47,0,0,1-.29-.28.7.7,0,0,0-.32-.34.66.66,0,0,1-.33-.35c0-.12-.12-.23-.17-.23s-1.12-1-1-1a.92.92,0,0,1,.5,0c.76.12.76.12.76-2.8a8.77,8.77,0,0,0-.14-2.7,1.7,1.7,0,0,0-.64-.15l-.5,0v-1.44l.56,0c.3,0,.59-.09.63-.17a13,13,0,0,0,.09-2c0-1.78,0-1.93-.21-2a5.68,5.68,0,0,0-2.21,0c-.21.12-.06.38-.07,3.94l0,4.21-.73,0a2.43,2.43,0,0,0-.94.23c-.17.14-.21,2.58-.21,11.66v11.49l-.4.18a1.42,1.42,0,0,0-.59.6c-.18.4-.24.3-1.15.32a3,3,0,0,0-1.71.39v1.16a2.28,2.28,0,0,1,1,1.58,1.87,1.87,0,0,1-1.76,1.76,1.83,1.83,0,0,1-1.84-1.69,2.3,2.3,0,0,1,1.1-1.65V129.6a3.73,3.73,0,0,0-1.73-.38c-.88,0-.94.07-1.12-.33a1.42,1.42,0,0,0-.59-.6l-.4-.18V108.27c0-19.43-.39-16.9-.74-17a2.89,2.89,0,0,0-1.38.06c-.14.09-.17.51-.18,2.59v2.46H61l-.75-.73-.69-.28-.7-.15H57l-.32.11v8.3l-.46.44-.47-.44V95.25a12.38,12.38,0,0,0-1.65-.13,7,7,0,0,0-1.91.37,5.8,5.8,0,0,0-.66.33,2.2,2.2,0,0,0-.56.26,1.54,1.54,0,0,0-.28.3H36.23V94a10.42,10.42,0,0,0-.14-2.62c-.1-.1-.56-.18-1.94-.13-4.71.16-5.48,0-5.54-.16a1,1,0,0,0-.46-.33,2.74,2.74,0,0,1-.72-.5c-.26-.29-.36-.33-.7-.27s-.41,0-.57-.28-.24-.35-.67-.35-.52,0-.64-.31l-.14-.28h-10l-.89-2.51L0,78.82V70.56Z"/><path id="rect4881-1-3-5-6-9-5" class="cls-2" d="M4.36,77.65l13.85,7,.22.94,180.78.44.22-.94,13.85-7.49V71.73l-13.85-7.49-.22-.94-180.78.44-.21.94-13.86,7v5.92Z"/><g id="g5231-8-0"><g id="flowRoot3011-1-5-1-5-5"><path id="path4356-1-2" class="cls-3" d="M40.92,77.57a3.74,3.74,0,0,1-1.76,3.15A7,7,0,0,1,35,82H25.59v-.58h.12a.81.81,0,0,0,.38-.07,1.86,1.86,0,0,0,.33-.21.48.48,0,0,0,.12-.26,2,2,0,0,0,0-.45c0-.12,0-.24,0-.36v-11a1,1,0,0,0-.31-.81.93.93,0,0,0-.66-.28h-.13v-.58h9.26a5.78,5.78,0,0,1,3.3.94,2.73,2.73,0,0,1,1.44,2.34,2.76,2.76,0,0,1-.71,1.94,4.45,4.45,0,0,1-2,1.12,5.52,5.52,0,0,1,2.91,1.3A3.29,3.29,0,0,1,40.92,77.57Zm-3.67-6.7a1.72,1.72,0,0,0-.81-1.56,7.48,7.48,0,0,0-3.6-.59l-.67,0h-3.3v4.42h4.27a7.57,7.57,0,0,0,2.61-.36A2,2,0,0,0,37.25,70.87Zm1.26,6.78a2.7,2.7,0,0,0-1.72-2.57,7.07,7.07,0,0,0-3-.58H28.87l0,6.06,5.77,0A5.15,5.15,0,0,0,37,80a2.52,2.52,0,0,0,1.52-2.36Z"/><path id="path4358-6-7" class="cls-3" d="M46.52,82H43.17v-.46h.1a.76.76,0,0,0,.54-.21.4.4,0,0,0,.11-.32V71.63a.58.58,0,0,0-.11-.41.68.68,0,0,0-.54-.23h-.1v-.46h3.35V71h-.1a.73.73,0,0,0-.56.22.69.69,0,0,0-.11.43v9.25a.76.76,0,0,0,.11.41.7.7,0,0,0,.56.21h.1Z"/><path id="path4360-5-9" class="cls-3" d="M59.09,82h-11v-.46h.1a.88.88,0,0,0,.54-.21.55.55,0,0,0,.1-.25,2.34,2.34,0,0,0,0-.38v-9a1.12,1.12,0,0,0,0-.29.42.42,0,0,0-.1-.17.73.73,0,0,0-.54-.22h-.1v-.46h3.35V71h-.1a.73.73,0,0,0-.54.22.49.49,0,0,0-.1.23c0,.1,0,.23,0,.4v9H56.5a5.45,5.45,0,0,0,1-.07,1.52,1.52,0,0,0,.68-.28.93.93,0,0,0,.38-.65h.54V82Z"/><path id="path4362-4-3" class="cls-3" d="M71.45,82h-11v-.46h.1a.88.88,0,0,0,.54-.21.46.46,0,0,0,.09-.25,1.58,1.58,0,0,0,0-.38v-9a.78.78,0,0,0,0-.29.32.32,0,0,0-.09-.17A.73.73,0,0,0,60.6,71h-.1v-.46h3.34V71h-.09a.73.73,0,0,0-.54.22.41.41,0,0,0-.1.23c0,.1,0,.23,0,.4v9h5.76a5.26,5.26,0,0,0,1-.07,1.51,1.51,0,0,0,.69-.28.93.93,0,0,0,.38-.65h.54Z"/><path id="path4364-4-5" class="cls-3" d="M87.14,82H83.71v-.46h.1a1,1,0,0,0,.49-.12c.1,0,0-.27-.17-.65-.12-.19-.23-.38-.34-.58l-1.6-2.76H76.82L75.1,80.88a.43.43,0,0,0-.06.24.28.28,0,0,0,.06.18.84.84,0,0,0,.58.21h.09V82h-3v-.46h.11a.74.74,0,0,0,.39-.12s.06,0,.11-.11l.16-.25,5.36-10.5h1.29l5.58,9.63c.11.2.22.4.32.6a2.52,2.52,0,0,0,.42.54.74.74,0,0,0,.49.21h.1V82Zm-5.56-5.64-2.26-3.9-2,3.9Z"/><path id="path4366-0-7" class="cls-3" d="M100.56,82H98l-5-5.12-1.91,0v3.27c0,.47,0,.77,0,.89a.39.39,0,0,0,.1.25,1.23,1.23,0,0,0,.7.21H92V82H88.56v-.46h.09a.88.88,0,0,0,.54-.21.35.35,0,0,0,.1-.21,1.83,1.83,0,0,0,0-.35,2.83,2.83,0,0,0,0-.29V71.58a.47.47,0,0,0-.11-.36.78.78,0,0,0-.54-.23h-.09v-.46h6.38a6.75,6.75,0,0,1,3.24.71,2.53,2.53,0,0,1,1.5,2.29,2.63,2.63,0,0,1-1.19,2.22,5.8,5.8,0,0,1-2.8,1l-.5.07L99.33,81a2.62,2.62,0,0,0,.26.24,1.19,1.19,0,0,0,.23.16,1.67,1.67,0,0,0,.74.16V82Zm-2.65-8.38A2,2,0,0,0,96.8,72a5.32,5.32,0,0,0-2.26-.37H91.13v4.23l3.89,0a3.85,3.85,0,0,0,1.81-.45,1.68,1.68,0,0,0,1.1-1.49,1.47,1.47,0,0,0,0-.25Z"/><path id="path4368-0-9" class="cls-3" d="M115.14,77A4.26,4.26,0,0,1,113,80.8,8.94,8.94,0,0,1,108.22,82H102v-.46h.09a.88.88,0,0,0,.54-.21.35.35,0,0,0,.1-.21,1.83,1.83,0,0,0,0-.35,2.81,2.81,0,0,0,0-.29V71.58a.47.47,0,0,0-.12-.36.76.76,0,0,0-.54-.23H102v-.46h4.09a11.27,11.27,0,0,1,6.3,1.65,5.47,5.47,0,0,1,2.72,4.8Zm-2,0A4.59,4.59,0,0,0,111.05,73a8.65,8.65,0,0,0-5.11-1.4h-1.29v9.3h2.47a14.93,14.93,0,0,0,2.85-.21,4.07,4.07,0,0,0,2.24-1.08A3.68,3.68,0,0,0,113.12,76.93Z"/><path id="path4370-5-4" class="cls-4" d="M131.33,70h-.71c-.05-.27-.09-.42-.1-.47a.88.88,0,0,0-.31-.39,2,2,0,0,0-.87-.31,11.75,11.75,0,0,0-1.88-.11h-7.29v4.42h6.28l.56,0a.84.84,0,0,0,.33-.16,1,1,0,0,0,.4-.6h.73v2.76h-.71a.8.8,0,0,0-.32-.54.88.88,0,0,0-.45-.14,6.81,6.81,0,0,0-.7,0h-6.12v6.25a.6.6,0,0,0,.34.57,1.76,1.76,0,0,0,.63.16V82h-4.27v-.58H117a.81.81,0,0,0,.38-.07,1.55,1.55,0,0,0,.33-.21.48.48,0,0,0,.12-.26,2,2,0,0,0,0-.45c0-.12,0-.24,0-.36V68.74a.62.62,0,0,0-.14-.45A1.06,1.06,0,0,0,117,68h-.12v-.58h14.48V70Z"/><path id="path4372-9-7" class="cls-3" d="M144.75,82h-3.42v-.46h.09a1.06,1.06,0,0,0,.5-.12c.09,0,0-.27-.18-.65-.11-.19-.23-.38-.33-.58L139.8,77.4h-5.36l-1.72,3.48a.43.43,0,0,0-.07.24.29.29,0,0,0,.07.18.84.84,0,0,0,.57.21h.1V82h-3v-.46h.11a.71.71,0,0,0,.38-.12.28.28,0,0,0,.11-.11l.16-.25,5.36-10.5h1.29l5.59,9.63.32.6a2.2,2.2,0,0,0,.41.54.74.74,0,0,0,.49.21h.1V82Zm-5.55-5.64-2.26-3.9-2,3.9Z"/><path id="path4374-55-5" class="cls-3" d="M158.25,78.51A2.94,2.94,0,0,1,156.86,81a5.45,5.45,0,0,1-3.27,1H146.2v-.46h.1a.65.65,0,0,0,.3-.05,1.12,1.12,0,0,0,.25-.16.35.35,0,0,0,.1-.21,1.83,1.83,0,0,0,0-.35,2.81,2.81,0,0,0,0-.29V71.84a.79.79,0,0,0-.77-.85h-.09v-.46h7.27a4.58,4.58,0,0,1,2.59.74,2.12,2.12,0,0,1,1.13,1.84,2.15,2.15,0,0,1-.55,1.52,3.52,3.52,0,0,1-1.59.88,4.49,4.49,0,0,1,2.29,1,2.57,2.57,0,0,1,1,2Zm-2.88-5.26a1.35,1.35,0,0,0-.64-1.23,6,6,0,0,0-2.83-.46l-.53,0h-2.59v3.47h3.36a5.94,5.94,0,0,0,2.05-.28,1.55,1.55,0,0,0,1.18-1.52Zm1,5.33a2.12,2.12,0,0,0-1.36-2,5.44,5.44,0,0,0-2.35-.46h-3.87l0,4.76h4.53a4,4,0,0,0,1.83-.42,2,2,0,0,0,1.2-1.85Z"/><path id="path4376-2-4" class="cls-3" d="M171.9,82h-2.51l-5-5.12-1.91,0v3.27c0,.47,0,.77,0,.89a.46.46,0,0,0,.09.25,1.27,1.27,0,0,0,.7.21h.1V82H159.9v-.46h.1a.88.88,0,0,0,.54-.21.51.51,0,0,0,.1-.21,1.83,1.83,0,0,0,0-.35,2.83,2.83,0,0,0,0-.29V71.58a.52.52,0,0,0-.11-.36A.78.78,0,0,0,160,71h-.1v-.46h6.39a6.75,6.75,0,0,1,3.24.71,2.53,2.53,0,0,1,1.5,2.29,2.61,2.61,0,0,1-1.2,2.22,5.76,5.76,0,0,1-2.8,1l-.49.07L170.68,81a2.65,2.65,0,0,0,.25.24,1.67,1.67,0,0,0,.24.16,1.63,1.63,0,0,0,.73.16V82Zm-2.64-8.38A2,2,0,0,0,168.15,72a5.35,5.35,0,0,0-2.26-.37h-3.41v4.23l3.89,0a3.85,3.85,0,0,0,1.81-.45,1.68,1.68,0,0,0,1.1-1.49A1.47,1.47,0,0,0,169.26,73.59Z"/><path id="path4378-0-1" class="cls-3" d="M177.05,82h-3.34v-.46h.09a.77.77,0,0,0,.55-.21.44.44,0,0,0,.11-.32V71.63a.63.63,0,0,0-.11-.41.69.69,0,0,0-.55-.23h-.09v-.46h3.34V71H177a.72.72,0,0,0-.56.22.63.63,0,0,0-.11.43v9.25a.68.68,0,0,0,.11.41.69.69,0,0,0,.56.21h.09Z"/><path id="path4380-9-4" class="cls-3" d="M191.16,82h-3.49v-.46h.11a.51.51,0,0,0,.46-.2c.07-.11,0-.33-.28-.65-.14-.16-.27-.33-.4-.5L183.9,75l-2.74,1.83v3.3a7.26,7.26,0,0,0,0,.74.6.6,0,0,0,.19.38,2.12,2.12,0,0,0,.29.18.65.65,0,0,0,.27.05h.11V82h-3.48v-.46h.11a.59.59,0,0,0,.28-.05s.13-.08.26-.16a.41.41,0,0,0,.09-.21,1.25,1.25,0,0,0,0-.35,2.83,2.83,0,0,0,0-.29V71.58a.52.52,0,0,0-.11-.36.78.78,0,0,0-.54-.23h-.11v-.46h3.35V71h-.09a.79.79,0,0,0-.56.22.5.5,0,0,0-.09.23,3.9,3.9,0,0,0,0,.4v3.62l5.32-3.62.36-.25c.26-.19.35-.32.29-.4a.52.52,0,0,0-.26-.19h-.39v-.46h4V71H190l-.33.13a1.55,1.55,0,0,0-.37.2l-.76.51L185.31,74l4.43,6.13.41.61a3.25,3.25,0,0,0,.38.46l.23.18a.42.42,0,0,0,.28.1h.12V82Z"/></g><circle id="path4899-9-6-8-5" class="cls-5" cx="9.94" cy="74.88" r="2.22"/><circle id="path4899-4-1-3-7-2" class="cls-5" cx="207.7" cy="74.88" r="2.22"/></g></g></svg>