<svg id="Layer_1" data-name="Layer 1" xmlns="http://www.w3.org/2000/svg" viewBox="0 0 450.67 80.42"><defs><style>.cls-1{fill:#231f20;}</style></defs><title>logo-ohne-dach-dick</title><path class="cls-1" d="M94.41,6.14a15.13,15.13,0,0,1,11.11,4.59,15.17,15.17,0,0,1,4.59,11.12V76.2H97.19V21.85A2.52,2.52,0,0,0,96.4,20a2.66,2.66,0,0,0-2-.79H66.75a2.7,2.7,0,0,0-2.66,2.66V76.2h-13V21.85a2.7,2.7,0,0,0-2.66-2.66H20.61A2.68,2.68,0,0,0,18,21.85V76.2H4.9V6.14Z"/><path class="cls-1" d="M178.24,6.14a15.17,15.17,0,0,1,11.12,4.59A15.2,15.2,0,0,1,194,21.85V47.7H135.72V60.5a2.7,2.7,0,0,0,2.66,2.66H194v13H138.38a15.67,15.67,0,0,1-15.7-15.7V21.85a15.17,15.17,0,0,1,4.59-11.12,15.13,15.13,0,0,1,11.11-4.59ZM135.72,34.65H180.9V21.85a2.7,2.7,0,0,0-2.66-2.66H138.38a2.7,2.7,0,0,0-2.66,2.66Z"/><path class="cls-1" d="M262.19,6.14a15.15,15.15,0,0,1,11.12,4.59,15.17,15.17,0,0,1,4.59,11.12V76.2h-13V21.85a2.68,2.68,0,0,0-2.66-2.66H222.33a2.7,2.7,0,0,0-2.66,2.66V76.2h-13V6.14Z"/><path class="cls-1" d="M361.24,21.85V24.5h-13V21.85a2.7,2.7,0,0,0-2.66-2.66H305.68A2.7,2.7,0,0,0,303,21.85V32a2.68,2.68,0,0,0,2.66,2.66h39.86a15.67,15.67,0,0,1,15.7,15.71V60.5a15.67,15.67,0,0,1-15.7,15.7H305.68A15.67,15.67,0,0,1,290,60.5V57.84h13V60.5a2.7,2.7,0,0,0,2.66,2.66h39.86a2.7,2.7,0,0,0,2.66-2.66V50.36a2.68,2.68,0,0,0-2.66-2.66H305.68A15.67,15.67,0,0,1,290,32V21.85a15.13,15.13,0,0,1,4.59-11.12,15.13,15.13,0,0,1,11.11-4.59h39.86a15.13,15.13,0,0,1,11.11,4.59A15.17,15.17,0,0,1,361.24,21.85Z"/><path class="cls-1" d="M428.89,6.14A15.13,15.13,0,0,1,440,10.73a15.17,15.17,0,0,1,4.59,11.12V76.2H389a15.67,15.67,0,0,1-15.71-15.7V34.65h58.23V21.85a2.7,2.7,0,0,0-2.66-2.66H373.32v-13Zm2.66,57V47.7H386.37V60.5A2.68,2.68,0,0,0,389,63.16Z"/></svg>