<svg id="Layer_1" data-name="Layer 1" xmlns="http://www.w3.org/2000/svg" viewBox="0 0 444.53 190.97"><defs><style>.cls-1{fill:none;stroke:#231f20;stroke-linecap:round;stroke-miterlimit:10;stroke-width:9px;}.cls-2{fill:#231f20;}</style></defs><title>logo-mit-dach-dick300ppi</title><polyline id="Roof" class="cls-1" points="5.29 107.33 89.76 95.12 89.76 47.09 222.45 5.17 353.11 47.09 353.11 96.34 439.8 107.33"/><circle id="Hole" class="cls-1" cx="222.43" cy="57.33" r="12.21"/><path class="cls-2" d="M92,120.56a15.67,15.67,0,0,1,15.7,15.7v54.36H94.81V136.26a2.58,2.58,0,0,0-.78-1.87,2.72,2.72,0,0,0-2-.78H64.37a2.56,2.56,0,0,0-1.87.78,2.59,2.59,0,0,0-.79,1.87v54.36h-13V136.26A2.68,2.68,0,0,0,46,133.61H18.23a2.68,2.68,0,0,0-2.66,2.65v54.36h-13V120.56Z"/><path class="cls-2" d="M175.87,120.56a15.67,15.67,0,0,1,15.7,15.7v25.85H133.35v12.81a2.66,2.66,0,0,0,2.65,2.65h55.57v13.05H136a15.67,15.67,0,0,1-15.7-15.7V136.26a15.67,15.67,0,0,1,15.7-15.7Zm-42.52,28.51h45.17V136.26a2.66,2.66,0,0,0-2.65-2.65H136a2.66,2.66,0,0,0-2.65,2.65Z"/><path class="cls-2" d="M259.82,120.56a15.67,15.67,0,0,1,15.7,15.7v54.36h-13V136.26a2.66,2.66,0,0,0-2.65-2.65H220a2.66,2.66,0,0,0-2.66,2.65v54.36H204.25V120.56Z"/><path class="cls-2" d="M358.87,136.26v2.66H345.82v-2.66a2.66,2.66,0,0,0-2.66-2.65H303.3a2.56,2.56,0,0,0-1.87.78,2.59,2.59,0,0,0-.79,1.87v10.15a2.57,2.57,0,0,0,.79,1.87,2.53,2.53,0,0,0,1.87.79h39.86a15.67,15.67,0,0,1,15.71,15.7v10.15a15.67,15.67,0,0,1-15.71,15.7H303.3a15.67,15.67,0,0,1-15.7-15.7v-2.66h13v2.66a2.68,2.68,0,0,0,2.66,2.65h39.86a2.66,2.66,0,0,0,2.66-2.65V164.77a2.56,2.56,0,0,0-.78-1.87,2.59,2.59,0,0,0-1.88-.79H303.3a15.67,15.67,0,0,1-15.7-15.7V136.26a15.67,15.67,0,0,1,15.7-15.7h39.86a15.67,15.67,0,0,1,15.71,15.7Z"/><path class="cls-2" d="M426.51,120.56a15.67,15.67,0,0,1,15.7,15.7v54.36H386.65a15.67,15.67,0,0,1-15.7-15.7V149.07h58.22V136.26a2.68,2.68,0,0,0-2.66-2.65H371V120.56Zm2.66,57V162.11H384v12.81a2.68,2.68,0,0,0,2.66,2.65Z"/></svg>